PathFileType	4	(X/Y/Z)	SUBJ51_2_walk_RCNL2025.trc
DataRate	CameraRate	NumFrames	NumMarkers	Units	OrigDataRate	OrigDataStartFrame	OrigNumFrames
100	100	8	25	mm	100	201	229
Frame#	Time	R_Shoulder			L_Shoulder			C7			J_Notch			R_Elbow			L_Elbow			R_Wrist			L_Wrist			R_Asis			L_Asis			Sacral			Thoracic			Sternum			R_Thigh_Lateral			R_Knee_Lateral			R_Shank_Lateral			R_Ankle_Lateral			R_Heel			R_Toe			L_Thigh_Lateral			L_Knee_Lateral			L_Shank_Lateral			L_Ankle_Lateral			L_Heel			L_Toe		
		X1	Y1	Z1	X2	Y2	Z2	X3	Y3	Z3	X4	Y4	Z4	X5	Y5	Z5	X6	Y6	Z6	X7	Y7	Z7	X8	Y8	Z8	X9	Y9	Z9	X10	Y10	Z10	X11	Y11	Z11	X12	Y12	Z12	X13	Y13	Z13	X14	Y14	Z14	X15	Y15	Z15	X16	Y16	Z16	X17	Y17	Z17	X18	Y18	Z18	X19	Y19	Z19	X20	Y20	Z20	X21	Y21	Z21	X22	Y22	Z22	X23	Y23	Z23	X24	Y24	Z24	X25	Y25	Z25
201	2.00000000	1052.879150	1431.587769	402.784515	1068.015991	1470.572266	-51.990936	978.359009	1575.975830	159.489609	1116.934082	1449.680298	168.137650	885.078735	1157.770874	459.151733	1044.132080	1176.446411	-184.032242	870.743195	882.369690	435.531311	1230.984375	997.929077	-174.354347	1114.647583	1020.084656	279.106293	1077.950562	992.105530	40.556057	878.677124	1042.474121	182.965744	867.633301	1369.455078	161.675323	1152.515747	1219.834229	151.849106	1184.604004	648.795532	354.225708	1205.588257	529.338135	302.017487	1231.105713	308.718048	359.784119	1232.369263	76.544678	240.318405	1181.443970	69.604576	180.178619	1391.490967	53.019527	209.639603	919.920044	620.840393	-63.401730	878.201843	512.080261	-15.440223	735.010254	384.320312	-50.005268	560.392456	185.317352	60.878613	535.826660	226.950409	118.721809	635.732300	50.076118	96.813637
202	2.01000000	1068.875244	1433.271729	403.137360	1082.630493	1472.607910	-51.284332	993.261719	1577.797729	160.328033	1131.886597	1451.612061	168.692764	904.773132	1157.840942	460.569397	1054.903320	1177.314819	-181.514282	894.387573	882.603668	438.137161	1236.816772	993.534882	-173.791000	1129.659058	1022.877441	279.948822	1093.416260	993.403870	42.086658	893.833069	1043.815918	183.032974	882.565857	1371.014771	162.238068	1167.700684	1221.883057	152.146530	1197.429077	649.579651	354.074768	1217.738403	530.002686	301.364441	1239.239502	309.048950	359.092712	1233.709473	76.937050	239.793015	1182.204468	70.310493	180.208817	1392.377686	51.290054	209.109375	942.514709	620.621643	-65.589127	903.397034	511.760742	-18.362448	757.029236	388.725464	-52.566193	578.434631	194.676941	58.645954	558.638245	238.115936	117.231079	641.830139	52.684059	96.428787
203	2.02000000	1084.878174	1435.137817	403.407990	1096.933594	1474.724609	-50.638660	1007.971069	1579.652222	161.084030	1146.649170	1453.567627	169.107056	924.541992	1158.102417	462.102722	1065.465820	1178.255371	-178.984436	918.789368	883.179657	440.885361	1241.984680	989.027039	-173.081879	1144.464355	1025.477417	280.859314	1108.792969	995.014954	43.520061	908.777954	1045.224609	183.309326	897.300720	1372.671143	162.860001	1182.578247	1223.903809	152.300293	1209.033691	649.822021	353.837372	1228.647949	530.259521	300.635468	1245.728516	309.149353	358.169403	1234.799805	77.327332	239.084915	1182.801880	70.855782	179.999344	1393.081665	50.167728	208.526947	965.494873	620.595337	-67.748329	929.223572	511.565369	-21.350857	780.367126	392.867859	-55.276470	598.137207	204.114563	56.441765	582.958374	249.054764	115.657021	649.800171	56.396080	95.687889
204	2.03000000	1100.864258	1437.115601	403.605347	1110.877197	1476.841553	-50.069832	1022.495178	1581.537964	161.780304	1161.216309	1455.537109	169.395325	944.303284	1158.520752	463.765259	1075.812622	1179.208008	-176.504791	943.858368	884.066376	443.735245	1246.556030	984.456970	-172.255539	1159.098877	1027.802368	281.802765	1124.079346	996.898438	44.772915	923.525452	1046.715332	183.775818	911.852783	1374.404663	163.582413	1197.184082	1225.885498	152.347275	1219.731445	649.671997	353.478821	1238.475464	530.184814	299.861816	1250.765259	309.102020	357.133026	1235.686279	77.678947	238.285110	1183.285522	71.277397	179.626160	1393.666992	49.453770	207.947128	988.630615	620.849854	-69.817970	955.503784	511.590424	-24.344051	804.918762	396.675903	-58.113167	619.299194	213.496796	54.355324	608.332581	259.557770	114.108147	660.148376	61.164665	94.428391
205	2.04000000	1116.806763	1439.152954	403.736084	1124.436768	1478.903442	-49.596382	1036.847900	1583.465454	162.432800	1175.591309	1457.528442	169.576111	964.010986	1159.068481	465.564209	1085.932861	1180.130737	-174.123886	969.486206	885.220581	446.647003	1250.596985	979.878906	-171.347023	1173.581543	1029.803711	282.744446	1139.272461	999.012939	45.780994	938.089417	1048.317261	184.377869	926.239807	1376.203735	164.431152	1211.562500	1227.847168	152.322693	1229.849731	649.314087	353.002136	1247.405029	529.876221	299.080505	1254.633911	308.956207	356.101257	1236.408203	77.969116	237.474045	1183.687378	71.610092	179.179688	1394.168945	48.992268	207.401779	1011.763428	621.463989	-71.771042	982.098389	511.935852	-27.299131	830.554199	400.127960	-61.037846	641.724731	222.629745	52.509960	634.352234	269.373627	112.770599	673.374451	66.781410	92.509712
206	2.05000000	1132.677002	1441.222534	403.803680	1137.615234	1480.885132	-49.237865	1051.044678	1585.446899	163.048965	1189.783447	1459.556396	169.669510	983.653503	1159.731079	467.496735	1095.814575	1181.005737	-171.868942	995.558807	886.596283	449.587906	1254.164734	975.348785	-170.390862	1187.915283	1031.470703	283.656525	1154.377686	1001.326660	46.499229	952.485229	1050.057617	185.031815	940.476562	1378.060425	165.414032	1225.758545	1229.824585	152.253296	1239.637451	648.917664	352.445953	1255.611816	529.434265	298.335175	1257.683594	308.754395	355.173157	1236.999512	78.188934	236.715195	1184.028320	71.885193	178.744629	1394.602905	48.673519	206.921768	1034.828369	622.492126	-73.613503	1008.899902	512.690186	-30.183052	857.102356	403.255249	-63.972618	665.243103	231.270538	51.024216	660.694885	278.236023	111.831177	689.877869	72.918549	89.843307
207	2.06000000	1148.446411	1443.322021	403.809570	1150.440674	1482.789429	-49.012344	1065.098999	1587.488037	163.628571	1203.806641	1461.632202	169.693726	1003.248169	1160.508911	469.549744	1105.450195	1181.840454	-169.744263	1021.973083	888.163849	452.542740	1257.301636	970.921295	-169.413246	1202.090210	1032.830566	284.520264	1169.407837	1003.814880	46.910160	966.730225	1051.950684	185.639984	954.575195	1379.966431	166.519272	1239.812744	1231.856323	152.155197	1249.223267	648.602539	351.871002	1263.237061	528.946289	297.672363	1260.257080	308.533905	354.424927	1237.489868	78.343964	236.054108	1184.321655	72.128273	178.385880	1394.974243	48.430325	206.535126	1057.839844	623.958252	-75.373413	1035.819336	513.915894	-32.965210	884.344238	406.135925	-66.791389	689.735168	239.157776	49.969158	687.158997	285.901703	111.403687	709.871338	79.191170	86.424042
208	2.07000000	1164.088745	1445.468872	403.755768	1162.955688	1484.636475	-48.930122	1079.019897	1589.583984	164.166245	1217.677856	1463.759888	169.661636	1022.832397	1161.416626	471.704865	1114.840332	1182.663696	-167.735367	1048.648376	889.924286	455.521149	1260.032288	966.646912	-168.425499	1216.089844	1033.946777	285.323608	1184.373413	1006.452087	47.032928	980.839966	1053.991699	186.110611	968.546814	1381.911865	167.717224	1253.755615	1233.971558	152.035507	1258.615112	648.424194	351.343964	1270.373657	528.474670	297.134399	1262.643188	308.312164	353.898621	1237.905640	78.453247	235.518173	1184.576782	72.358688	178.142014	1395.286865	48.227726	206.254456	1080.855469	625.859375	-77.088028	1062.771973	515.638000	-35.614521	912.026123	408.874847	-69.338120	715.143738	246.044128	49.342411	713.675659	292.177185	111.495018	733.338867	85.213493	82.344780
